<?xml version="1.0" standalone="no"?>
<!DOCTYPE svg PUBLIC "-//W3C//DTD SVG 20010904//EN"
 "http://www.w3.org/TR/2001/REC-SVG-20010904/DTD/svg10.dtd">
<svg version="1.0" xmlns="http://www.w3.org/2000/svg"
 width="225.000000pt" height="225.000000pt" viewBox="0 0 225.000000 225.000000"
 preserveAspectRatio="xMidYMid meet">

<g transform="translate(0.000000,225.000000) scale(0.100000,-0.100000)"
fill="#000000" stroke="none">
<path d="M585 2106 c-27 -13 -64 -39 -81 -57 -17 -19 -134 -211 -259 -428
-246 -428 -259 -457 -237 -548 14 -61 448 -821 500 -875 20 -21 55 -47 79 -58
41 -19 61 -20 538 -20 l496 0 47 24 c26 13 61 39 78 58 17 18 134 211 259 428
246 429 258 456 237 548 -13 58 -445 815 -496 871 -17 18 -53 44 -81 57 l-50
24 -490 0 -490 0 -50 -24z m599 -332 l26 -27 0 -308 0 -308 -24 -28 c-34 -39
-98 -39 -132 0 l-24 28 0 308 0 308 26 27 c19 19 37 26 64 26 27 0 45 -7 64
-26z m-345 -109 c31 -16 41 -33 41 -73 0 -18 -20 -46 -70 -98 -47 -48 -81 -94
-103 -140 -31 -66 -32 -74 -32 -189 0 -114 2 -123 32 -188 59 -125 170 -218
298 -252 323 -84 628 201 561 522 -20 99 -58 167 -137 249 -56 57 -69 76 -69
103 0 41 38 81 79 81 37 0 111 -58 168 -131 225 -292 154 -707 -155 -907 -212
-137 -499 -126 -702 27 -303 228 -333 665 -66 933 79 80 104 90 155 63z"/>
</g>
</svg>
